<svg width="132" height="48" viewBox="0 0 132 48" fill="none" xmlns="http://www.w3.org/2000/svg">
<g clip-path="url(#clip0_241_19608)">
<path d="M2.7057 38.7647C2.7057 39.8776 3.14779 40.9449 3.9347 41.7318C4.72162 42.5187 5.78891 42.9608 6.90178 42.9608H23.6861C24.799 42.9608 25.8663 42.5187 26.6532 41.7318C27.4401 40.9449 27.8822 39.8776 27.8822 38.7647L29.3019 13.5883H1.09668L2.7057 38.7647Z" fill="#228B22"/>
<path d="M17.3456 20.2906C17.3892 20.3014 17.4328 20.3121 17.4778 20.3235C18.2989 20.5341 19.0556 20.8937 19.7606 21.364C19.7606 21.4082 19.7606 21.4525 19.7606 21.4981C19.7069 21.4693 19.7069 21.4693 19.6519 21.4391C19.4688 21.3526 19.2823 21.2908 19.0898 21.2298C19.1119 21.2741 19.134 21.3183 19.1569 21.364C19.3266 21.4082 19.3266 21.4082 19.4923 21.431C19.4701 21.4975 19.448 21.5639 19.4252 21.6323C19.3574 21.6175 19.3574 21.6175 19.2877 21.6028C19.228 21.5907 19.1683 21.5779 19.1065 21.5652C19.0475 21.5525 18.9885 21.5404 18.9274 21.5276C18.7396 21.4907 18.7396 21.4907 18.486 21.4981C18.486 21.6309 18.486 21.7638 18.486 21.9006C18.5524 21.9228 18.6189 21.9449 18.6873 21.9677C18.9107 22.2421 18.9891 22.4192 18.9556 22.7727C18.7054 22.9391 18.4404 22.9451 18.1506 22.9069C17.9158 22.8062 17.9158 22.8062 17.7481 22.7056C17.7381 23.0256 17.7407 23.308 17.8152 23.6193C17.9078 24.0352 18.0104 24.7302 17.8152 25.1206C18.3472 24.9394 18.8469 24.7161 19.3454 24.4578C19.3984 24.4316 19.4513 24.4048 19.5057 24.3773C19.9987 24.117 20.4375 23.7944 20.7333 23.3134C20.7823 23.2356 20.7823 23.2356 20.8319 23.1564C20.8547 23.1182 20.8775 23.0806 20.901 23.041C20.9674 23.0632 21.0338 23.0853 21.1022 23.1081C21.164 23.2382 21.164 23.2382 21.2149 23.41C21.2344 23.473 21.2538 23.5361 21.2733 23.6012C21.2928 23.6696 21.3129 23.738 21.333 23.8084C21.3639 23.9124 21.3639 23.9124 21.3947 24.0184C22.0649 26.3281 22.2735 28.8463 21.1224 31.0392C20.854 31.4827 20.5213 31.859 20.1631 32.2313C20.0819 32.3178 20.0819 32.3178 19.9987 32.4057C19.0542 33.3865 17.7287 34.117 16.3944 34.4041C16.322 34.4202 16.2495 34.4356 16.1744 34.4524C16.0295 34.4833 15.8839 34.5121 15.7383 34.5376C15.3707 34.604 15.3707 34.604 15.1111 34.8468C15.0574 35.0038 15.0246 35.1534 14.9977 35.3171C14.9783 35.3889 14.9588 35.4607 14.9387 35.5351C14.9079 35.6592 14.877 35.784 14.8468 35.9081C14.7965 36.055 14.7965 36.055 14.6623 36.1221C14.4403 36.1415 14.2793 36.1288 14.0666 36.059C13.9244 35.9208 13.9244 35.9208 13.9097 35.6606C13.9687 33.3328 14.8072 31.5793 16.4065 29.9505C16.4796 29.8754 16.4796 29.8754 16.5547 29.7989C16.705 29.6466 16.8553 29.4943 17.0062 29.3427C17.0753 29.273 17.0753 29.273 17.1451 29.2025C17.5489 28.8 17.9702 28.423 18.4189 28.0722C18.1453 28.6525 17.7354 29.1683 17.3497 29.6781C16.9995 30.1403 16.6614 30.6079 16.3394 31.0909C16.3038 31.1432 16.2683 31.1956 16.2314 31.2492C15.7907 31.9355 15.2158 33.0095 15.2661 33.8413C16.7607 33.5803 18.1406 33.037 19.291 32.0301C19.3373 31.9898 19.3836 31.9489 19.4319 31.9073C20.3979 31.0003 20.9734 29.5138 21.0425 28.203C21.0459 28.0615 21.0479 27.9199 21.0486 27.7784C21.0492 27.7261 21.0492 27.6737 21.0499 27.6201C21.0506 27.5107 21.0513 27.4007 21.0513 27.2914C21.0519 27.1263 21.0539 26.962 21.056 26.797C21.0613 25.9812 21.0043 25.193 20.6327 24.4497C20.3549 24.5779 20.1222 24.755 19.8766 24.9361C19.5473 25.1474 19.179 25.2735 18.8147 25.4124C17.8018 25.7974 16.8298 26.2127 15.9134 26.7949C15.8121 26.8587 15.7095 26.9204 15.6069 26.9814C15.2473 27.1988 14.9206 27.4423 14.5993 27.7113C14.5631 27.7422 14.5262 27.773 14.4886 27.8045C13.6621 28.5149 13.3093 29.6037 13.2207 30.6683C13.1832 31.4719 13.3683 32.1602 13.744 32.8726C13.8607 33.1094 13.8889 33.2463 13.8573 33.5059C13.8352 33.528 13.8131 33.5501 13.7903 33.573C13.3837 33.5488 13.0872 33.4522 12.7297 33.263C12.6834 33.2389 12.6371 33.2154 12.5902 33.1906C11.7872 32.77 11.7872 32.77 11.4424 32.4996C11.4424 32.4554 11.4424 32.4111 11.4424 32.3655C11.4028 32.3474 11.3639 32.3286 11.323 32.3098C10.1591 31.696 9.338 30.0713 8.96033 28.8772C8.44447 27.1283 8.61687 25.3601 9.44668 23.7414C9.6922 23.2966 9.98669 22.9015 10.302 22.5044C10.3878 22.6768 10.3543 22.7358 10.306 22.9196C10.255 23.1262 10.2362 23.2644 10.2476 23.4811C10.2342 23.7279 10.2074 23.7675 10.0672 23.9547C9.81899 24.3209 9.84716 24.6946 9.89948 25.1206C10.0296 25.7478 10.3992 26.3851 10.9158 26.7715C11.1231 26.8808 11.2888 26.9298 11.5222 26.9573C11.7543 27.0083 11.8167 27.1116 11.9562 27.2961C12.1447 27.5174 12.3755 27.6543 12.6653 27.6858C12.7941 27.6865 12.9236 27.6784 13.0524 27.6697C13.0524 27.4926 13.0524 27.3155 13.0524 27.133C12.9678 27.1277 12.8833 27.1223 12.7968 27.1163C12.5345 27.0854 12.5345 27.0854 12.3815 26.9278C12.348 26.8634 12.348 26.8634 12.3145 26.7976C12.346 26.7701 12.3782 26.7426 12.411 26.7138C12.5278 26.583 12.5472 26.4964 12.5828 26.3281C12.4949 26.3468 12.4064 26.367 12.3185 26.3871C12.2695 26.3978 12.2205 26.4086 12.1702 26.42C12.032 26.4508 12.032 26.4508 11.979 26.5964C11.8905 26.5964 11.8019 26.5964 11.7107 26.5964C11.2914 25.9356 11.2914 25.9356 11.3753 25.5231C11.4759 25.3165 11.5846 25.1803 11.7778 25.0535C12.1783 24.9562 12.5063 25.0253 12.8639 25.2212C12.9497 25.2755 13.0356 25.3312 13.1194 25.3889C13.0524 25.5901 13.0524 25.5901 12.8511 25.7243C12.8343 25.9645 12.8343 25.9645 12.8511 26.1939C13.0275 26.0919 13.1758 26.0034 13.3207 25.8585C13.3321 25.6519 13.3321 25.6519 13.3207 25.456C13.365 25.456 13.4092 25.456 13.4549 25.456C13.4522 25.3949 13.4495 25.3346 13.4468 25.2715C13.4549 25.0615 13.481 24.9602 13.589 24.7852C13.6333 24.7852 13.6776 24.7852 13.7232 24.7852C13.7299 24.7449 13.7373 24.7047 13.744 24.6637C13.797 24.496 13.8553 24.4243 13.9915 24.3156C14.0358 24.3156 14.0801 24.3156 14.1257 24.3156C14.1257 24.1385 14.1257 23.9614 14.1257 23.7789C14.1673 23.7762 14.2089 23.7736 14.2518 23.7709C14.2987 23.7514 14.3457 23.732 14.394 23.7118C14.4135 23.6495 14.4329 23.5871 14.453 23.5233C14.5503 23.2456 14.6751 23.1765 14.9307 23.041C14.9971 23.041 15.0635 23.041 15.1319 23.041C15.1762 22.9525 15.2205 22.8639 15.2661 22.7727C15.3768 22.7727 15.4874 22.7727 15.6015 22.7727C15.4713 22.2749 15.354 21.8704 14.9307 21.5444C14.7623 21.4492 14.6456 21.4042 14.4611 21.364C14.4644 21.427 14.4644 21.427 14.4685 21.4914C14.4698 21.5464 14.4718 21.6008 14.4738 21.6578C14.4772 21.7389 14.4772 21.7389 14.4805 21.8228C14.4745 21.8704 14.4678 21.9181 14.4611 21.9677C14.2109 22.1347 14.0868 22.1381 13.7903 22.1019C13.6226 21.955 13.6226 21.955 13.5219 21.7665C13.534 21.5229 13.6326 21.3204 13.7232 21.0956C13.648 21.0876 13.5729 21.0795 13.4958 21.0708C13.3965 21.0594 13.2979 21.048 13.1993 21.0366C13.1248 21.0292 13.1248 21.0292 13.049 21.0212C12.8028 20.9923 12.6579 20.9668 12.4486 20.8273C13.9828 20.0632 15.6874 19.872 17.3456 20.2906Z" fill="white"/>
<path d="M19.4329 5.24811C19.9823 5.25173 20.4123 5.33452 20.8674 5.65729C21.3432 6.21482 21.2899 6.84857 21.2981 7.55475C21.3008 7.66894 21.3032 7.78354 21.3059 7.90045C21.3122 8.18038 21.3178 8.45939 21.3206 8.73932C21.4094 8.73841 21.4975 8.73737 21.5881 8.73737C22.4204 8.73193 23.2529 8.72739 24.0852 8.72467C24.5129 8.72376 24.9407 8.72153 25.3684 8.71881C25.7818 8.71609 26.1952 8.71386 26.6086 8.71295C26.7662 8.71295 26.9228 8.71281 27.0803 8.711C27.3015 8.70919 27.5222 8.70905 27.7434 8.70905C27.8076 8.70814 27.8718 8.70694 27.9377 8.70514C28.5298 8.70877 29.0126 8.84583 29.4641 9.22662C29.9508 9.81124 29.974 10.2191 29.9631 10.9659C29.9631 11.1073 29.9632 11.1079 29.9641 11.252C29.9578 12.0443 29.9571 12.0444 29.7522 12.3663C29.5229 12.4813 29.3631 12.4688 29.1057 12.4688C29.0061 12.4697 28.9073 12.4699 28.8049 12.4708H28.4719C28.2982 12.4717 28.298 12.4717 28.1204 12.4717C27.7968 12.4736 27.4733 12.4728 27.1506 12.4737C26.8025 12.4737 26.4538 12.4747 26.1047 12.4756C25.2636 12.4784 24.4224 12.4797 23.5813 12.4815C23.3438 12.4815 23.1059 12.4816 22.8684 12.4825C21.3933 12.4843 19.9188 12.4865 18.4446 12.4874C18.1028 12.4874 17.7609 12.4874 17.4192 12.4883H17.1614C15.7854 12.4892 14.4094 12.4935 13.0334 12.4971C11.6218 12.5008 10.2088 12.5021 8.79712 12.503C8.00382 12.503 7.21053 12.5042 6.41724 12.5079C5.74179 12.5097 5.06632 12.5116 4.39087 12.5098C4.04647 12.5098 3.70207 12.5091 3.35767 12.5118C2.98413 12.5136 2.61011 12.5127 2.23657 12.5118C2.07259 12.5136 2.0723 12.5139 1.90552 12.5157C1.08999 12.5075 1.08967 12.5077 0.808838 12.2422C0.627509 11.9703 0.592041 11.8266 0.592041 11.502V11.2169C0.594761 11.0709 0.594274 11.0706 0.5979 10.921C0.596994 10.824 0.596854 10.7267 0.595947 10.626C0.601393 10.0623 0.628517 9.7075 1.01196 9.28326C1.17659 9.13401 1.17703 9.13413 1.33521 9.02838C1.38688 8.99302 1.43999 8.95618 1.49438 8.91901C1.85969 8.70608 2.22327 8.72439 2.63208 8.72076C2.70458 8.71986 2.77756 8.71874 2.85278 8.71783C3.09198 8.71512 3.33234 8.71372 3.57153 8.711C3.73818 8.70919 3.90391 8.70695 4.07056 8.70514C4.50756 8.6997 4.94612 8.69502 5.38403 8.69049C5.83088 8.68596 6.27703 8.68128 6.72388 8.67584C7.60048 8.66678 8.47709 8.65666 9.35278 8.6485C9.35459 8.57979 9.35586 8.51108 9.35767 8.44147C9.36401 8.12872 9.37301 7.81672 9.38208 7.50397C9.38389 7.39619 9.38515 7.28828 9.38696 7.1778C9.41779 6.17239 9.41874 6.17234 9.71606 5.74811C10.0615 5.43625 10.278 5.28305 10.7395 5.28033C10.821 5.27943 10.9024 5.28026 10.9866 5.27936C11.0763 5.27936 11.1666 5.27838 11.259 5.27838C11.3532 5.27748 11.4473 5.27733 11.5442 5.27643C11.8579 5.27461 12.1718 5.27343 12.4846 5.27252C12.5915 5.27162 12.6984 5.27155 12.8088 5.27155C13.3746 5.26973 13.9414 5.26757 14.5081 5.26666C15.0928 5.26576 15.6782 5.26345 16.2629 5.25983C16.7125 5.25711 17.162 5.25592 17.6116 5.25592C17.8264 5.25501 18.0423 5.2548 18.2581 5.25299C18.5598 5.25118 18.8616 5.25111 19.1633 5.25201C19.2966 5.2502 19.297 5.24992 19.4329 5.24811ZM11.9709 6.7774C11.5875 6.77921 11.3936 6.69051 11.3655 7.12115C11.3655 7.22162 11.3644 7.32028 11.3635 7.41803C11.3599 7.71541 11.3603 7.71586 11.3811 7.96881C11.583 8.16976 11.5832 8.17027 12.0667 8.17389C12.1392 8.17298 12.2107 8.17194 12.2805 8.17194C12.517 8.17194 12.753 8.17284 12.9895 8.17194C13.1589 8.17103 13.3279 8.17089 13.4973 8.16998C13.8479 8.16998 14.1995 8.16991 14.551 8.16901C15.0098 8.16719 15.4692 8.16608 15.928 8.16608C16.2851 8.16608 16.6422 8.16601 16.9993 8.1651C17.1697 8.1651 17.3396 8.16503 17.51 8.16412C17.7555 8.16412 18.0009 8.16405 18.2473 8.16315C18.3235 8.16315 18.3976 8.16217 18.4719 8.16217C18.7085 8.16217 18.9424 8.15854 19.178 8.14948C19.2684 8.05909 19.2688 8.05854 19.2815 7.79498C19.2806 7.63044 19.2805 7.63011 19.2805 7.46979C19.2805 7.2732 19.2779 7.0766 19.2688 6.88092C19.1682 6.77938 19.1676 6.77922 18.678 6.7774C18.5695 6.7774 18.569 6.77748 18.4612 6.77838C18.222 6.77748 17.9827 6.7774 17.7444 6.7774H16.1604C15.6963 6.77831 15.2309 6.77838 14.7659 6.77838C14.4042 6.77748 14.0425 6.7774 13.6799 6.7774H12.4153C12.3002 6.7774 12.3001 6.77748 12.1877 6.77838C12.1143 6.77747 12.0426 6.7774 11.9709 6.7774Z" fill="#228B22"/>
<path d="M38.9071 39.902V13.5417H46.4071C48.6865 13.5417 50.4941 14.0993 51.8298 15.2145C53.1656 16.3297 53.8335 17.7819 53.8335 19.5711C53.8335 21.0662 53.4291 22.3652 52.6203 23.4682C51.8115 24.5711 50.6963 25.3554 49.2747 25.8211V25.8946C51.0517 26.103 52.4732 26.777 53.5394 27.9167C54.6056 29.0441 55.1387 30.5147 55.1387 32.3284C55.1387 34.5834 54.3298 36.4093 52.7122 37.8064C51.0946 39.2034 49.0541 39.902 46.5909 39.902H38.9071ZM41.9953 16.3358V24.8468H45.1571C46.8482 24.8468 48.1779 24.4424 49.146 23.6336C50.1142 22.8125 50.5982 21.6606 50.5982 20.1777C50.5982 17.6164 48.9132 16.3358 45.5431 16.3358H41.9953ZM41.9953 27.6226V37.1079H46.1865C48.0002 37.1079 49.4034 36.6789 50.396 35.8211C51.4009 34.9633 51.9034 33.7868 51.9034 32.2917C51.9034 29.1789 49.7833 27.6226 45.5431 27.6226H41.9953ZM62.3806 16.299C61.8414 16.299 61.3818 16.1152 61.0019 15.7476C60.622 15.3799 60.4321 14.9142 60.4321 14.3505C60.4321 13.7868 60.622 13.3211 61.0019 12.9534C61.3818 12.5735 61.8414 12.3836 62.3806 12.3836C62.9321 12.3836 63.3977 12.5735 63.7776 12.9534C64.1698 13.3211 64.3659 13.7868 64.3659 14.3505C64.3659 14.8897 64.1698 15.3493 63.7776 15.7292C63.3977 16.1091 62.9321 16.299 62.3806 16.299ZM63.8512 39.902H60.8365V21.0784H63.8512V39.902ZM86.3321 39.902H83.3173V29.1667C83.3173 25.1716 81.859 23.174 78.9423 23.174C77.435 23.174 76.185 23.7439 75.1923 24.8836C74.212 26.011 73.7218 27.4387 73.7218 29.1667V39.902H70.7071V21.0784H73.7218V24.2034H73.7953C75.2169 21.826 77.2757 20.6373 79.9718 20.6373C82.0306 20.6373 83.6053 21.3052 84.696 22.6409C85.7867 23.9645 86.3321 25.8824 86.3321 28.3946V39.902ZM98.8497 13.5417V16.1887H96.2762V37.2549H98.8497V39.902H90.6144V37.2549H93.1879V16.1887H90.6144V13.5417H98.8497ZM112.305 39.7182C111.594 40.1103 110.657 40.3064 109.492 40.3064C106.196 40.3064 104.547 38.4682 104.547 34.7917V23.652H101.312V21.0784H104.547V16.4829L107.562 15.5086V21.0784H112.305V23.652H107.562V34.2586C107.562 35.5209 107.777 36.4216 108.206 36.9608C108.635 37.5 109.345 37.7696 110.338 37.7696C111.098 37.7696 111.753 37.5613 112.305 37.1446V39.7182Z" fill="#228B22"/>
</g>
<defs>
<clipPath id="clip0_241_19608">
<rect width="131.765" height="48" fill="white"/>
</clipPath>
</defs>
</svg>
