<svg width="280" height="32" viewBox="0 0 280 32" fill="none" xmlns="http://www.w3.org/2000/svg">
<g clip-path="url(#clip0_229_101110)">
<path d="M25.8039 25.8432C25.8039 26.5851 26.0986 27.2966 26.6232 27.8212C27.1478 28.3458 27.8594 28.6405 28.6013 28.6405H39.7908C40.5327 28.6405 41.2442 28.3458 41.7689 27.8212C42.2935 27.2966 42.5882 26.5851 42.5882 25.8432L43.5347 9.05884H24.7312L25.8039 25.8432Z" fill="#228B22"/>
<path d="M35.5637 13.527C35.5927 13.5342 35.6218 13.5413 35.6518 13.5489C36.1992 13.6893 36.7036 13.9291 37.1736 14.2426C37.1736 14.2721 37.1736 14.3016 37.1736 14.332C37.1379 14.3128 37.1379 14.3128 37.1012 14.2926C36.9791 14.235 36.8548 14.1938 36.7264 14.1531C36.7412 14.1826 36.7559 14.2121 36.7712 14.2426C36.8843 14.2721 36.8843 14.2721 36.9948 14.2873C36.98 14.3316 36.9652 14.3758 36.95 14.4214C36.9049 14.4116 36.9049 14.4116 36.8584 14.4018C36.8186 14.3937 36.7788 14.3852 36.7376 14.3767C36.6983 14.3682 36.6589 14.3602 36.6182 14.3517C36.493 14.3271 36.493 14.3271 36.3239 14.332C36.3239 14.4205 36.3239 14.5091 36.3239 14.6003C36.3682 14.6151 36.4125 14.6298 36.4581 14.6451C36.607 14.828 36.6594 14.946 36.637 15.1817C36.4702 15.2926 36.2935 15.2966 36.1003 15.2712C35.9438 15.2041 35.9438 15.2041 35.832 15.137C35.8253 15.3503 35.8271 15.5386 35.8767 15.7461C35.9384 16.0234 36.0069 16.4867 35.8767 16.747C36.2314 16.6262 36.5645 16.4773 36.8968 16.3051C36.9322 16.2877 36.9675 16.2698 37.0037 16.2515C37.3324 16.0779 37.6249 15.8628 37.8221 15.5422C37.8548 15.4903 37.8548 15.4903 37.8879 15.4375C37.9031 15.412 37.9183 15.387 37.9339 15.3606C37.9782 15.3754 38.0225 15.3901 38.0681 15.4053C38.1092 15.4921 38.1092 15.4921 38.1432 15.6066C38.1562 15.6486 38.1692 15.6906 38.1821 15.734C38.1951 15.7796 38.2085 15.8253 38.2219 15.8722C38.2425 15.9415 38.2425 15.9415 38.2631 16.0122C38.7098 17.552 38.8489 19.2308 38.0815 20.6928C37.9026 20.9884 37.6808 21.2392 37.442 21.4875C37.3879 21.5451 37.3879 21.5451 37.3324 21.6037C36.7027 22.2576 35.819 22.7446 34.9295 22.936C34.8812 22.9467 34.8329 22.957 34.7828 22.9682C34.6862 22.9888 34.5892 23.008 34.4921 23.025C34.2471 23.0693 34.2471 23.0693 34.074 23.2311C34.0382 23.3358 34.0163 23.4355 33.9984 23.5446C33.9854 23.5925 33.9725 23.6404 33.9591 23.69C33.9385 23.7727 33.9179 23.8559 33.8978 23.9386C33.8643 24.0366 33.8643 24.0366 33.7748 24.0813C33.6268 24.0943 33.5194 24.0858 33.3777 24.0393C33.2829 23.9471 33.2829 23.9471 33.273 23.7736C33.3124 22.2218 33.8714 21.0528 34.9376 19.9669C34.9863 19.9168 34.9863 19.9168 35.0364 19.8658C35.1366 19.7643 35.2368 19.6628 35.3374 19.5617C35.3834 19.5152 35.3834 19.5152 35.43 19.4683C35.6992 19.1999 35.98 18.9486 36.2792 18.7147C36.0968 19.1016 35.8235 19.4455 35.5664 19.7854C35.3329 20.0935 35.1075 20.4052 34.8928 20.7272C34.8691 20.7621 34.8454 20.797 34.8208 20.8327C34.527 21.2902 34.1438 22.0062 34.1773 22.5608C35.1737 22.3868 36.0936 22.0246 36.8606 21.3533C36.8915 21.3265 36.9223 21.2992 36.9545 21.2714C37.5985 20.6668 37.9822 19.6758 38.0283 18.8019C38.0305 18.7076 38.0319 18.6132 38.0323 18.5188C38.0328 18.484 38.0328 18.4491 38.0332 18.4133C38.0336 18.3404 38.0341 18.2671 38.0341 18.1942C38.0345 18.0841 38.0359 17.9746 38.0372 17.8646C38.0408 17.3207 38.0028 16.7953 37.755 16.2997C37.5699 16.3852 37.4147 16.5032 37.251 16.624C37.0314 16.7649 36.7859 16.8489 36.5431 16.9415C35.8678 17.1982 35.2198 17.475 34.6089 17.8632C34.5413 17.9057 34.4729 17.9468 34.4045 17.9875C34.1648 18.1324 33.947 18.2948 33.7328 18.4741C33.7086 18.4947 33.684 18.5153 33.659 18.5363C33.108 19.0099 32.8728 19.7357 32.8137 20.4454C32.7887 20.9812 32.9121 21.44 33.1626 21.915C33.2404 22.0729 33.2592 22.1641 33.2381 22.3372C33.2234 22.3519 33.2086 22.3667 33.1934 22.3819C32.9224 22.3658 32.7247 22.3014 32.4864 22.1753C32.4555 22.1592 32.4247 22.1435 32.3934 22.127C31.858 21.8466 31.858 21.8466 31.6282 21.6663C31.6282 21.6368 31.6282 21.6073 31.6282 21.5769C31.6018 21.5648 31.5758 21.5523 31.5486 21.5398C30.7726 21.1306 30.2253 20.0474 29.9735 19.2514C29.6296 18.0855 29.7445 16.9066 30.2977 15.8275C30.4614 15.531 30.6577 15.2676 30.8679 15.0028C30.9251 15.1178 30.9028 15.1571 30.8706 15.2796C30.8366 15.4174 30.8241 15.5095 30.8317 15.654C30.8227 15.8185 30.8048 15.8449 30.7114 15.9697C30.5459 16.2139 30.5647 16.463 30.5996 16.747C30.6863 17.1651 30.9328 17.59 31.2771 17.8476C31.4153 17.9205 31.5258 17.9531 31.6814 17.9714C31.8361 18.0054 31.8777 18.0743 31.9707 18.1973C32.0964 18.3449 32.2502 18.4361 32.4434 18.4571C32.5293 18.4576 32.6156 18.4522 32.7015 18.4464C32.7015 18.3283 32.7015 18.2103 32.7015 18.0886C32.6451 18.085 32.5888 18.0815 32.5311 18.0774C32.3562 18.0569 32.3562 18.0569 32.2543 17.9518C32.2319 17.9088 32.2319 17.9088 32.2096 17.865C32.2306 17.8467 32.252 17.8283 32.274 17.8091C32.3518 17.7219 32.3647 17.6642 32.3884 17.552C32.3299 17.5645 32.2708 17.5779 32.2122 17.5913C32.1796 17.5985 32.1469 17.6056 32.1134 17.6132C32.0213 17.6338 32.0213 17.6338 31.9859 17.7308C31.9269 17.7308 31.8679 17.7308 31.8071 17.7308C31.5275 17.2903 31.5275 17.2903 31.5834 17.0153C31.6505 16.8776 31.723 16.7868 31.8518 16.7022C32.1188 16.6374 32.3375 16.6835 32.5758 16.814C32.6331 16.8503 32.6903 16.8874 32.7462 16.9259C32.7015 17.06 32.7015 17.06 32.5673 17.1495C32.5561 17.3096 32.5561 17.3096 32.5673 17.4625C32.6849 17.3945 32.7838 17.3355 32.8804 17.2389C32.888 17.1012 32.888 17.1012 32.8804 16.9706C32.9099 16.9706 32.9394 16.9706 32.9698 16.9706C32.968 16.9299 32.9662 16.8896 32.9645 16.8476C32.9698 16.7076 32.9873 16.6401 33.0593 16.5234C33.0888 16.5234 33.1183 16.5234 33.1487 16.5234C33.1532 16.4965 33.1581 16.4697 33.1626 16.4424C33.1979 16.3306 33.2368 16.2828 33.3276 16.2103C33.3571 16.2103 33.3866 16.2103 33.417 16.2103C33.417 16.0922 33.417 15.9742 33.417 15.8525C33.4448 15.8507 33.4725 15.849 33.5011 15.8472C33.5324 15.8342 33.5637 15.8212 33.5959 15.8078C33.6089 15.7662 33.6219 15.7246 33.6353 15.6821C33.7001 15.497 33.7833 15.4509 33.9537 15.3606C33.998 15.3606 34.0422 15.3606 34.0879 15.3606C34.1174 15.3016 34.1469 15.2425 34.1773 15.1817C34.2511 15.1817 34.3249 15.1817 34.4009 15.1817C34.3142 14.8499 34.2359 14.5802 33.9537 14.3629C33.8414 14.2994 33.7636 14.2694 33.6406 14.2426C33.6429 14.2846 33.6429 14.2846 33.6456 14.3275C33.6465 14.3642 33.6478 14.4004 33.6491 14.4384C33.6514 14.4925 33.6514 14.4925 33.6536 14.5485C33.6496 14.5802 33.6451 14.612 33.6406 14.6451C33.4738 14.7564 33.3911 14.7586 33.1934 14.7345C33.0816 14.6366 33.0816 14.6366 33.0145 14.5109C33.0226 14.3485 33.0883 14.2135 33.1487 14.0637C33.0986 14.0583 33.0485 14.0529 32.9971 14.0471C32.9309 14.0395 32.8652 14.0319 32.7994 14.0243C32.7498 14.0194 32.7498 14.0194 32.6993 14.014C32.5351 13.9948 32.4385 13.9778 32.299 13.8848C33.3218 13.3754 34.4582 13.2479 35.5637 13.527Z" fill="white"/>
<path d="M36.9553 3.49878C37.3215 3.5012 37.608 3.5562 37.9114 3.77124C38.2287 4.14296 38.193 4.56602 38.1985 5.03687C38.2003 5.11276 38.2025 5.18866 38.2043 5.26636C38.2086 5.45313 38.2123 5.64014 38.2141 5.8269C38.2732 5.8263 38.3316 5.82495 38.3918 5.82495C38.9467 5.82132 39.502 5.81895 40.0569 5.81714C40.342 5.81653 40.6272 5.81407 40.9124 5.81226C41.1879 5.81044 41.463 5.80993 41.7385 5.80933C41.8437 5.80933 41.9488 5.80858 42.054 5.80737C42.2013 5.80617 42.348 5.80542 42.4954 5.80542C42.5382 5.80482 42.5812 5.80467 42.6252 5.80347C43.0199 5.80588 43.3418 5.89726 43.6428 6.15112C43.9673 6.54095 43.9821 6.81326 43.9749 7.31128C43.9749 7.4052 43.9752 7.40573 43.9758 7.50171C43.9716 8.02937 43.9716 8.02964 43.8352 8.2439C43.6824 8.32059 43.5759 8.31227 43.4045 8.31226C43.3381 8.31286 43.2717 8.31263 43.2034 8.31323H42.9817C42.8657 8.31384 42.8655 8.31421 42.7473 8.31421C42.5315 8.31542 42.315 8.31556 42.0999 8.31616C41.868 8.31616 41.6361 8.31653 41.4036 8.31714C40.8427 8.31895 40.2818 8.31984 39.7209 8.32104C39.5626 8.32104 39.4037 8.32044 39.2454 8.32104C38.262 8.32225 37.2789 8.32435 36.2961 8.32495C36.0684 8.32495 35.8403 8.32532 35.6125 8.32593H35.4417C34.5241 8.32653 33.6062 8.32839 32.6887 8.33081C31.7476 8.33323 30.8056 8.33509 29.8645 8.33569C29.3359 8.33569 28.8072 8.33621 28.2786 8.33862C27.8283 8.33983 27.3773 8.34081 26.927 8.3396C26.6975 8.3396 26.468 8.33974 26.2385 8.34155C25.9896 8.34276 25.7404 8.34216 25.4915 8.34155C25.3821 8.34276 25.3818 8.3423 25.2708 8.34351C24.7268 8.33807 24.7267 8.33799 24.5393 8.16089C24.4186 7.97974 24.3948 7.884 24.3948 7.66772V7.47729C24.3966 7.38053 24.3963 7.38026 24.3987 7.28101C24.3981 7.21648 24.3973 7.15164 24.3967 7.08472C24.4004 6.70876 24.4194 6.47208 24.675 6.18921C24.7849 6.08964 24.7852 6.08899 24.8909 6.01831C24.9252 5.99484 24.9602 5.97071 24.9963 5.94604C25.2399 5.80409 25.4826 5.81663 25.7551 5.81421C25.8034 5.81361 25.8516 5.81286 25.9016 5.81226C26.0612 5.81044 26.2215 5.80919 26.3811 5.80737C26.4923 5.80616 26.603 5.80468 26.7141 5.80347C27.0054 5.79984 27.2972 5.79672 27.5891 5.7937C27.8871 5.79068 28.1847 5.78756 28.4827 5.78394C29.0671 5.77789 29.6518 5.7718 30.2356 5.76636C30.2368 5.72045 30.2373 5.67419 30.2385 5.62769C30.2428 5.41918 30.2491 5.21119 30.2551 5.00269C30.2563 4.93076 30.2568 4.85865 30.2581 4.78491C30.2786 4.11479 30.2787 4.11451 30.4768 3.83179C30.7071 3.62389 30.8519 3.5221 31.1594 3.52026C31.2138 3.51966 31.2683 3.51989 31.3245 3.51929C31.3843 3.51929 31.4445 3.51831 31.5061 3.51831C31.5689 3.51771 31.6319 3.51794 31.6965 3.51733C31.9056 3.51613 32.115 3.51599 32.3235 3.51538C32.3946 3.51478 32.4658 3.5144 32.5393 3.5144C32.9165 3.5132 33.2944 3.51208 33.6721 3.51147C34.062 3.51087 34.4522 3.50901 34.842 3.50659C35.1417 3.50478 35.4418 3.50464 35.7415 3.50464C35.8846 3.50403 36.0284 3.50292 36.1721 3.50171C36.3733 3.5005 36.5745 3.50013 36.7756 3.50073C36.8645 3.49952 36.8648 3.49999 36.9553 3.49878ZM31.9807 4.51831C31.7252 4.51951 31.5962 4.46024 31.5774 4.74683C31.5774 4.81377 31.576 4.87993 31.5754 4.94507C31.573 5.14327 31.5733 5.14376 31.5872 5.31226C31.7219 5.44644 31.7224 5.44656 32.0452 5.44897C32.0934 5.44837 32.1404 5.448 32.1868 5.448C32.3445 5.448 32.5017 5.4486 32.6594 5.448C32.7725 5.44739 32.8853 5.44763 32.9983 5.44702C33.2321 5.44702 33.467 5.44665 33.7014 5.44604C34.0071 5.44484 34.3127 5.44409 34.6184 5.44409C34.8566 5.44409 35.0951 5.44372 35.3333 5.44312C35.4467 5.44312 35.5596 5.44372 35.6731 5.44312C35.8369 5.44312 36.0009 5.44274 36.1653 5.44214C36.216 5.44214 36.2652 5.44214 36.3147 5.44214C36.4724 5.44214 36.6283 5.43939 36.7854 5.43335C36.8458 5.37291 36.8463 5.37285 36.8547 5.19702C36.8541 5.08711 36.8538 5.08694 36.8538 4.98022C36.8538 4.84906 36.852 4.71723 36.8459 4.58667C36.779 4.51911 36.7785 4.51952 36.4524 4.51831H31.9807Z" fill="#228B22"/>
<path d="M49.938 26.2681V8.69454H54.938C56.4576 8.69454 57.6626 9.06627 58.5532 9.80973C59.4437 10.5532 59.8889 11.5213 59.8889 12.7141C59.8889 13.7109 59.6193 14.5769 59.0801 15.3122C58.5409 16.0475 57.7974 16.5704 56.8497 16.8808V16.9298C58.0344 17.0687 58.9821 17.5181 59.6929 18.2779C60.4036 19.0295 60.759 20.0099 60.759 21.219C60.759 22.7223 60.2198 23.9396 59.1414 24.871C58.063 25.8024 56.7027 26.2681 55.0605 26.2681H49.938ZM51.9968 10.5573V16.2313H54.1046C55.2321 16.2313 56.1185 15.9617 56.7639 15.4225C57.4094 14.8751 57.7321 14.1071 57.7321 13.1186C57.7321 11.411 56.6087 10.5573 54.362 10.5573H51.9968ZM51.9968 18.0818V24.4053H54.7909C56 24.4053 56.9355 24.1194 57.5973 23.5475C58.2672 22.9756 58.6022 22.1913 58.6022 21.1945C58.6022 19.1194 57.1888 18.0818 54.362 18.0818H51.9968ZM65.587 10.5328C65.2275 10.5328 64.9211 10.4102 64.6679 10.1651C64.4146 9.92003 64.288 9.60957 64.288 9.23375C64.288 8.85794 64.4146 8.54748 64.6679 8.30238C64.9211 8.04911 65.2275 7.92248 65.587 7.92248C65.9546 7.92248 66.2651 8.04911 66.5183 8.30238C66.7798 8.54748 66.9105 8.85794 66.9105 9.23375C66.9105 9.59323 66.7798 9.8996 66.5183 10.1529C66.2651 10.4061 65.9546 10.5328 65.587 10.5328ZM66.5674 26.2681H64.5576V13.719H66.5674V26.2681ZM81.5546 26.2681H79.5448V19.1112C79.5448 16.4478 78.5726 15.1161 76.6281 15.1161C75.6232 15.1161 74.7899 15.496 74.1281 16.2558C73.4746 17.0074 73.1478 17.9592 73.1478 19.1112V26.2681H71.138V13.719H73.1478V15.8024H73.1968C74.1445 14.2174 75.517 13.4249 77.3144 13.4249C78.687 13.4249 79.7368 13.8702 80.4639 14.7607C81.1911 15.6431 81.5546 16.9217 81.5546 18.5965V26.2681ZM89.8997 8.69454V10.4592H88.184V24.5034H89.8997V26.2681H84.4095V24.5034H86.1252V10.4592H84.4095V8.69454H89.8997ZM98.8698 26.1455C98.396 26.407 97.771 26.5377 96.9948 26.5377C94.7971 26.5377 93.6982 25.3122 93.6982 22.8612V15.4347H91.5414V13.719H93.6982V10.6553L95.7081 10.0058V13.719H98.8698V15.4347H95.7081V22.5058C95.7081 23.3473 95.851 23.9478 96.137 24.3073C96.4229 24.6668 96.8968 24.8465 97.5585 24.8465C98.0651 24.8465 98.5022 24.7076 98.8698 24.4298V26.1455Z" fill="#228B22"/>
</g>
<defs>
<clipPath id="clip0_229_101110">
<rect width="87.8431" height="32" fill="white" transform="translate(24)"/>
</clipPath>
</defs>
</svg>
